PathFileType	4	(X/Y/Z)	C:/Users/opensim2020/Desktop/walking_exp_matlab/subject03_walking11_straight_04.trc																																																																																																																																								
DataRate	CameraRate	NumFrames	NumMarkers	Units	OrigDataRate	OrigDataStartFrame	OrigNumFrames																																																																																																																																				
100	100	4	46	mm	100	3966	350																																																																																																																																				
Frame#	Time	LFHD			RFHD			LBHD			RBHD			C7			T10			CLAV			STRN			RBAK			LSHO			LUPA			LELB			LFRM			LWRA			LWRB			LFIN			RSHO			RUPA			RELB			RFRM			RWRA			RWRB			RFIN			LASI			RASI			LPSI			RPSI			LTHI			LKNE			LTIB			LANK			LHEE			LTOE			RTHI			RKNE			RTIB			RANK			RHEE			RTOE			*39			*40			*41			*42			*43			*44			*45		
		X1	Y1	Z1	X2	Y2	Z2	X3	Y3	Z3	X4	Y4	Z4	X5	Y5	Z5	X6	Y6	Z6	X7	Y7	Z7	X8	Y8	Z8	X9	Y9	Z9	X10	Y10	Z10	X11	Y11	Z11	X12	Y12	Z12	X13	Y13	Z13	X14	Y14	Z14	X15	Y15	Z15	X16	Y16	Z16	X17	Y17	Z17	X18	Y18	Z18	X19	Y19	Z19	X20	Y20	Z20	X21	Y21	Z21	X22	Y22	Z22	X23	Y23	Z23	X24	Y24	Z24	X25	Y25	Z25	X26	Y26	Z26	X27	Y27	Z27	X28	Y28	Z28	X29	Y29	Z29	X30	Y30	Z30	X31	Y31	Z31	X32	Y32	Z32	X33	Y33	Z33	X34	Y34	Z34	X35	Y35	Z35	X36	Y36	Z36	X37	Y37	Z37	X38	Y38	Z38	X39	Y39	Z39	X40	Y40	Z40	X41	Y41	Z41	X42	Y42	Z42	X43	Y43	Z43	X44	Y44	Z44	X45	Y45	Z45	X46	Y46	Z46
																																																																																																																																											
219	2.18	388.05685	1629.18066	981.46826	377.14871	1634.50671	1114.03235	266.91321	1569.651	977.60577	260.75226	1575.01807	1108.12341	245.30344	1417.06384	1037.27905	220.37834	1103.37549	1040.48389	368.81403	1343.74622	1042.19897	415.72269	1180.0249	1033.04248	194.99124	1239.04114	1131.599	332.58344	1380.56042	885.8255	345.67996	1184.22424	816.58569	364.65594	1062.07239	806.89288	407.68335	939.26917	811.45294	442.02087	826.2016	845.5744	420.62631	826.4126	793.57135	443.57077	744.66766	808.16504	318.85648	1364.20752	1200.96606	315.68176	1140.27747	1269.95691	331.41068	1028.10815	1281.43652	353.83414	893.04645	1279.48132	390.05923	800.55212	1242.05945	357.15173	792.50708	1284.47546	382.84543	722.42651	1271.91797	382.10355	939.95782	914.45062	398.09842	943.7655	1152.84375	224.10019	963.19934	974.67456	235.36125	974.73248	1123.02783	319.89725	636.49579	858.67798	323.35172	456.30154	875.02667	173.97278	323.74213	887.81854	37.0092	171.39102	938.46619	-8.12931	180.59523	982.23413	99.65649	35.21633	962.64862	354.60336	649.77655	1192.60474	383.16708	471.06445	1153.09192	354.69351	283.8092	1157.03027	350.70358	67.13337	1106.13098	305.65994	34.45962	1056.7323	493.35867	32.18069	1077.99219	295.85278	1681.52039	1024.66174	NaN	NaN	NaN	NaN	NaN	NaN	NaN	NaN	NaN	NaN	NaN	NaN	NaN	NaN	NaN	NaN	NaN	NaN
220	2.19	393.55594	1628.9939	981.7193	382.93863	1634.2804	1114.34607	272.75998	1568.75903	978.07776	266.84204	1574.17578	1108.71399	251.58925	1416.86023	1037.99976	225.95129	1103.1886	1041.18872	374.93573	1343.32788	1042.42981	421.38544	1179.38782	1033.15076	201.43532	1238.94641	1133.16113	337.73517	1379.82813	886.14667	349.11166	1183.24121	816.57654	367.75681	1061.02795	806.57928	410.06766	938.00793	810.73914	444.04907	824.74963	844.49573	422.25879	825.1546	792.62402	445.06693	743.43604	806.77753	326.26376	1363.64734	1201.53857	324.0723	1139.98206	1271.04028	340.29568	1027.90784	1282.88855	363.6264	893.00153	1281.16565	400.42621	800.88739	1243.94568	367.67447	792.59674	1286.35901	393.87915	722.75531	1273.83704	386.88852	938.99475	914.77765	403.922	943.69995	1153.29626	229.2099	962.02179	975.39453	240.81291	974.50153	1123.63123	328.4903	635.82416	857.80579	336.3512	455.76196	873.66711	186.29123	324.9028	887.07703	47.32582	174.76677	938.40765	2.40405	184.11147	982.90814	109.13297	37.8502	959.90723	361.44751	649.74615	1192.59827	387.12723	470.95038	1153.62354	357.09064	283.69055	1157.3457	350.86487	67.22222	1106.16235	305.66495	34.54257	1056.80591	493.45816	32.11633	1077.84387	301.25967	1680.7052	1024.896	NaN	NaN	NaN	NaN	NaN	NaN	NaN	NaN	NaN	NaN	NaN	NaN	NaN	NaN	NaN	NaN	NaN	NaN
221	2.2	399.02533	1628.81433	981.91791	388.74786	1634.00793	1114.61401	278.54346	1567.96472	978.55975	272.8913	1573.32178	1109.32031	257.66257	1416.57983	1039.23108	231.37408	1103.078	1041.92725	380.9888	1342.88452	1042.55945	426.87305	1178.70679	1033.22107	207.83627	1238.9021	1134.45825	342.87851	1379.15808	886.33759	352.49326	1182.35474	816.37476	370.50528	1060.08972	806.2312	412.39059	936.86212	810.03448	446.05692	823.3988	843.34283	423.83478	823.99762	791.68427	446.71167	742.32001	805.33929	333.55615	1363.23401	1202.00146	332.55411	1139.71899	1272.05945	349.25433	1027.80396	1284.38757	373.48175	893.00537	1282.78796	410.80902	801.15112	1245.625	378.24762	792.6745	1288.19287	405.02048	723.10309	1275.89893	392.1308	938.58813	914.87262	409.88058	943.71576	1153.65784	234.21263	960.92609	976.06262	246.49214	974.19824	1124.36292	337.32092	635.44238	858.41919	349.19797	455.54239	872.54749	198.71315	326.10098	886.6557	58.35012	177.65057	938.52325	13.42509	186.54041	983.70007	120.78798	40.66858	956.28528	367.51791	649.04718	1192.98694	391.00531	470.80753	1153.98157	359.49631	283.59845	1157.59253	350.80441	67.42792	1106.03748	305.63528	34.62026	1056.86414	493.50253	32.03274	1077.74084	306.28119	1679.88513	1025.4353	NaN	NaN	NaN	NaN	NaN	NaN	NaN	NaN	NaN	NaN	NaN	NaN	NaN	NaN	NaN	NaN	NaN	NaN
222	2.21	404.48059	1628.64966	982.10944	394.53253	1633.74927	1114.77075	284.36993	1567.20483	979.08276	278.98663	1572.49768	1109.72595	263.73016	1416.41907	1040.06323	236.82681	1102.87854	1042.51282	386.93262	1342.4895	1042.63159	432.26413	1178.13831	1033.19617	214.01654	1238.9707	1135.67603	347.80927	1378.58789	886.51044	355.73093	1181.59497	816.30792	373.37814	1059.32605	805.76465	414.58795	935.79187	809.23419	448.13452	822.35547	842.21338	425.49005	823.02649	790.72485	448.47513	741.47321	803.8974	340.70807	1362.88013	1202.38464	341.07944	1139.51318	1273.03088	358.46109	1027.74304	1285.70142	383.49402	893.11688	1284.43811	421.14703	801.39008	1247.29358	388.84134	792.81409	1290.06042	416.20334	723.44849	1277.89355	396.92685	938.12646	915.06677	415.30887	943.91406	1153.62854	239.28909	959.88916	976.77271	251.97809	973.91772	1125.0592	346.01001	635.32202	858.4234	361.96741	455.65784	871.54333	211.37744	327.20663	886.41852	69.90241	180.0378	938.99731	25.16598	187.9437	984.44043	133.48569	43.01147	953.14008	372.08035	649.71124	1193.39624	394.88632	470.6304	1154.21887	361.90326	283.5274	1157.77136	350.94656	67.47241	1105.99646	305.60556	34.71636	1056.93994	493.53726	31.98298	1077.66638	311.75372	1679.14563	1025.94141	NaN	NaN	NaN	NaN	NaN	NaN	NaN	NaN	NaN	NaN	NaN	NaN	NaN	NaN	NaN	NaN	NaN	NaN
